<svg width="113" height="113" viewBox="0 0 113 113" fill="none" xmlns="http://www.w3.org/2000/svg">
<rect width="113" height="113" rx="10" fill="#AA00AA"/>
<path d="M11.0455 86V27.8182H30.7045C35.2689 27.8182 39 28.642 41.8977 30.2898C44.8144 31.9186 46.9735 34.125 48.375 36.9091C49.7765 39.6932 50.4773 42.7992 50.4773 46.2273C50.4773 49.6553 49.7765 52.7708 48.375 55.5739C46.9924 58.3769 44.8523 60.6117 41.9545 62.2784C39.0568 63.9261 35.3447 64.75 30.8182 64.75H16.7273V58.5H30.5909C33.7159 58.5 36.2254 57.9602 38.1193 56.8807C40.0133 55.8011 41.3864 54.3428 42.2386 52.5057C43.1098 50.6496 43.5455 48.5568 43.5455 46.2273C43.5455 43.8977 43.1098 41.8144 42.2386 39.9773C41.3864 38.1402 40.0038 36.7008 38.0909 35.6591C36.178 34.5985 33.6402 34.0682 30.4773 34.0682H18.0909V86H11.0455ZM58.2756 86H50.8892L72.2528 27.8182H79.5256L100.889 86H93.5028L76.1165 37.0227H75.6619L58.2756 86ZM61.0028 63.2727H90.7756V69.5227H61.0028V63.2727Z" fill="white"/>
</svg>
